<mxfile host="app.diagrams.net" modified="2023-05-10T14:32:00.917Z" agent="Mozilla/5.0 (Windows NT 10.0; Win64; x64) AppleWebKit/537.36 (KHTML, like Gecko) Chrome/112.0.0.0 Safari/537.36" etag="uvqPAaQ9un9yYOoyUCRt" version="21.2.9" type="device">
  <diagram name="Page-1" id="09TcWYJB6ObnDu0X46LN">
    <mxGraphModel dx="2271" dy="1976" grid="1" gridSize="10" guides="1" tooltips="1" connect="1" arrows="1" fold="1" page="1" pageScale="1" pageWidth="827" pageHeight="1169" background="#ffffff" math="0" shadow="0">
      <root>
        <mxCell id="0" />
        <mxCell id="1" parent="0" />
        <mxCell id="coq8QXR6QQkpp2Y44n48-8" value="" style="rounded=0;whiteSpace=wrap;html=1;fillColor=#fff2cc;strokeColor=#d6b656;" vertex="1" parent="1">
          <mxGeometry x="-170" y="-50" width="2130" height="177.5" as="geometry" />
        </mxCell>
        <mxCell id="coq8QXR6QQkpp2Y44n48-6" value="" style="rounded=0;whiteSpace=wrap;html=1;fillColor=#ffe6cc;strokeColor=#d79b00;" vertex="1" parent="1">
          <mxGeometry y="-20" width="1930" height="120" as="geometry" />
        </mxCell>
        <mxCell id="coq8QXR6QQkpp2Y44n48-7" value="country" style="text;html=1;strokeColor=none;fillColor=none;align=center;verticalAlign=middle;whiteSpace=wrap;rounded=0;fontStyle=1;fontSize=20;" vertex="1" parent="1">
          <mxGeometry x="720" y="-20" width="60" height="30" as="geometry" />
        </mxCell>
        <mxCell id="coq8QXR6QQkpp2Y44n48-10" value="" style="shape=datastore;whiteSpace=wrap;html=1;" vertex="1" parent="1">
          <mxGeometry x="-155" y="-45" width="120" height="165" as="geometry" />
        </mxCell>
        <mxCell id="coq8QXR6QQkpp2Y44n48-9" value="countrydb" style="text;html=1;strokeColor=none;fillColor=none;align=center;verticalAlign=middle;whiteSpace=wrap;rounded=0;fontSize=22;fontStyle=1" vertex="1" parent="1">
          <mxGeometry x="-160" y="-30" width="130" height="120" as="geometry" />
        </mxCell>
        <mxCell id="coq8QXR6QQkpp2Y44n48-22" value="&lt;div style=&quot;color: rgb(212, 212, 212); background-color: rgb(30, 30, 30); font-family: Consolas, &amp;quot;Courier New&amp;quot;, monospace; font-size: 14px; line-height: 19px;&quot;&gt;getWholeCountryTable.php&lt;/div&gt;" style="whiteSpace=wrap;html=1;shape=mxgraph.basic.document;fillColor=#6666FF;" vertex="1" parent="1">
          <mxGeometry x="700" y="227.5" width="100" height="100" as="geometry" />
        </mxCell>
        <mxCell id="coq8QXR6QQkpp2Y44n48-24" value="" style="line;strokeWidth=5;fillColor=none;align=left;verticalAlign=middle;spacingTop=-1;spacingLeft=3;spacingRight=3;rotatable=0;labelPosition=right;points=[];portConstraint=eastwest;strokeColor=default;dashed=1;" vertex="1" parent="1">
          <mxGeometry x="-150" y="160" width="2100" height="8" as="geometry" />
        </mxCell>
        <mxCell id="coq8QXR6QQkpp2Y44n48-26" value="" style="line;strokeWidth=5;fillColor=none;align=left;verticalAlign=middle;spacingTop=-1;spacingLeft=3;spacingRight=3;rotatable=0;labelPosition=right;points=[];portConstraint=eastwest;strokeColor=default;dashed=1;" vertex="1" parent="1">
          <mxGeometry x="-155" y="373.5" width="2105" height="8" as="geometry" />
        </mxCell>
        <mxCell id="coq8QXR6QQkpp2Y44n48-23" value="" style="shape=singleArrow;direction=south;whiteSpace=wrap;html=1;" vertex="1" parent="1">
          <mxGeometry x="740" y="327.5" width="60" height="100" as="geometry" />
        </mxCell>
        <mxCell id="coq8QXR6QQkpp2Y44n48-21" value="" style="shape=singleArrow;direction=south;whiteSpace=wrap;html=1;" vertex="1" parent="1">
          <mxGeometry x="740" y="127.5" width="60" height="100" as="geometry" />
        </mxCell>
        <mxCell id="coq8QXR6QQkpp2Y44n48-27" value="&lt;div style=&quot;color: rgb(212, 212, 212); background-color: rgb(30, 30, 30); font-family: Consolas, &amp;quot;Courier New&amp;quot;, monospace; font-size: 14px; line-height: 19px;&quot;&gt;SELECT&lt;span style=&quot;color: #ce9178;&quot;&gt; &lt;/span&gt;*&lt;span style=&quot;color: #ce9178;&quot;&gt; &lt;/span&gt;&lt;span style=&quot;color: #569cd6;&quot;&gt;FROM&lt;/span&gt;&lt;span style=&quot;color: #ce9178;&quot;&gt; country&lt;/span&gt;&lt;/div&gt;" style="text;html=1;strokeColor=none;fillColor=none;align=center;verticalAlign=middle;whiteSpace=wrap;rounded=0;" vertex="1" parent="1">
          <mxGeometry x="670" y="280" width="170" height="30" as="geometry" />
        </mxCell>
        <mxCell id="coq8QXR6QQkpp2Y44n48-28" value="" style="shape=singleArrow;direction=north;whiteSpace=wrap;html=1;" vertex="1" parent="1">
          <mxGeometry x="690" y="127.5" width="60" height="100" as="geometry" />
        </mxCell>
        <mxCell id="coq8QXR6QQkpp2Y44n48-29" value="" style="shape=singleArrow;direction=north;whiteSpace=wrap;html=1;" vertex="1" parent="1">
          <mxGeometry x="690" y="327.5" width="60" height="100" as="geometry" />
        </mxCell>
        <mxCell id="coq8QXR6QQkpp2Y44n48-30" value="&lt;div style=&quot;color: rgb(212, 212, 212); background-color: rgb(30, 30, 30); font-family: Consolas, &amp;quot;Courier New&amp;quot;, monospace; font-size: 14px; line-height: 19px;&quot;&gt;ui.js&lt;/div&gt;" style="whiteSpace=wrap;html=1;shape=mxgraph.basic.document;fillColor=#F7FF00;" vertex="1" parent="1">
          <mxGeometry x="700" y="427.5" width="100" height="100" as="geometry" />
        </mxCell>
        <mxCell id="coq8QXR6QQkpp2Y44n48-49" value="export" style="shape=singleArrow;whiteSpace=wrap;html=1;fillColor=#0050ef;strokeColor=#001DBC;rotation=0;fontColor=#ffffff;" vertex="1" parent="1">
          <mxGeometry x="840" y="520" width="270" height="60" as="geometry" />
        </mxCell>
        <mxCell id="coq8QXR6QQkpp2Y44n48-59" style="edgeStyle=orthogonalEdgeStyle;rounded=0;orthogonalLoop=1;jettySize=auto;html=1;entryX=0;entryY=0.5;entryDx=0;entryDy=0;strokeColor=#ffcccc;strokeWidth=4;" edge="1" parent="1" source="coq8QXR6QQkpp2Y44n48-50" target="coq8QXR6QQkpp2Y44n48-52">
          <mxGeometry relative="1" as="geometry" />
        </mxCell>
        <mxCell id="coq8QXR6QQkpp2Y44n48-62" value="CountryScope" style="edgeStyle=orthogonalEdgeStyle;rounded=0;orthogonalLoop=1;jettySize=auto;html=1;exitX=0.5;exitY=1;exitDx=0;exitDy=0;exitPerimeter=0;entryX=0.25;entryY=0;entryDx=0;entryDy=0;strokeColor=#0050ef;strokeWidth=4;" edge="1" parent="1" source="coq8QXR6QQkpp2Y44n48-50" target="coq8QXR6QQkpp2Y44n48-51">
          <mxGeometry relative="1" as="geometry" />
        </mxCell>
        <mxCell id="coq8QXR6QQkpp2Y44n48-50" value="&lt;div style=&quot;color: rgb(212, 212, 212); background-color: rgb(30, 30, 30); font-family: Consolas, &amp;quot;Courier New&amp;quot;, monospace; font-size: 14px; line-height: 19px;&quot;&gt;resourceCalculations.js&lt;/div&gt;" style="whiteSpace=wrap;html=1;shape=mxgraph.basic.document;fillColor=#F7FF00;" vertex="1" parent="1">
          <mxGeometry x="1120" y="459.90999999999997" width="100" height="100" as="geometry" />
        </mxCell>
        <mxCell id="coq8QXR6QQkpp2Y44n48-114" style="edgeStyle=orthogonalEdgeStyle;rounded=0;orthogonalLoop=1;jettySize=auto;html=1;entryX=0;entryY=0.75;entryDx=0;entryDy=0;strokeColor=#0050ef;strokeWidth=2;" edge="1" parent="1" source="coq8QXR6QQkpp2Y44n48-51" target="coq8QXR6QQkpp2Y44n48-113">
          <mxGeometry relative="1" as="geometry" />
        </mxCell>
        <mxCell id="coq8QXR6QQkpp2Y44n48-115" style="edgeStyle=orthogonalEdgeStyle;rounded=0;orthogonalLoop=1;jettySize=auto;html=1;entryX=0;entryY=1;entryDx=0;entryDy=0;strokeColor=#ffcccc;strokeWidth=2;" edge="1" parent="1" source="coq8QXR6QQkpp2Y44n48-51" target="coq8QXR6QQkpp2Y44n48-113">
          <mxGeometry relative="1" as="geometry">
            <Array as="points">
              <mxPoint x="1330" y="695" />
              <mxPoint x="1330" y="720" />
            </Array>
          </mxGeometry>
        </mxCell>
        <mxCell id="coq8QXR6QQkpp2Y44n48-51" value="&lt;div style=&quot;color: rgb(212, 212, 212); background-color: rgb(30, 30, 30); font-family: Consolas, &amp;quot;Courier New&amp;quot;, monospace; font-size: 14px; line-height: 19px;&quot;&gt;createArrayOfInitialData&lt;/div&gt;" style="shape=delay;whiteSpace=wrap;html=1;strokeWidth=1;perimeterSpacing=0;" vertex="1" parent="1">
          <mxGeometry x="940" y="620" width="310" height="100" as="geometry" />
        </mxCell>
        <mxCell id="coq8QXR6QQkpp2Y44n48-60" value="Path Area in km2" style="edgeStyle=orthogonalEdgeStyle;rounded=0;orthogonalLoop=1;jettySize=auto;html=1;entryX=0.75;entryY=0;entryDx=0;entryDy=0;strokeColor=#ffcccc;strokeWidth=4;exitX=0.25;exitY=1;exitDx=0;exitDy=0;" edge="1" parent="1" source="coq8QXR6QQkpp2Y44n48-52" target="coq8QXR6QQkpp2Y44n48-51">
          <mxGeometry relative="1" as="geometry" />
        </mxCell>
        <mxCell id="coq8QXR6QQkpp2Y44n48-52" value="&lt;div style=&quot;color: rgb(212, 212, 212); background-color: rgb(30, 30, 30); font-family: Consolas, &amp;quot;Courier New&amp;quot;, monospace; font-size: 14px; line-height: 19px;&quot;&gt;calculatePathAreasWhenPageLoaded&lt;/div&gt;" style="shape=delay;whiteSpace=wrap;html=1;" vertex="1" parent="1">
          <mxGeometry x="1370" y="427.5" width="260" height="100" as="geometry" />
        </mxCell>
        <mxCell id="coq8QXR6QQkpp2Y44n48-58" style="edgeStyle=orthogonalEdgeStyle;rounded=0;orthogonalLoop=1;jettySize=auto;html=1;entryX=0.5;entryY=0;entryDx=0;entryDy=0;entryPerimeter=0;strokeWidth=4;fillColor=#ffcccc;strokeColor=#ffcccc;" edge="1" parent="1" source="coq8QXR6QQkpp2Y44n48-55" target="coq8QXR6QQkpp2Y44n48-50">
          <mxGeometry relative="1" as="geometry" />
        </mxCell>
        <mxCell id="coq8QXR6QQkpp2Y44n48-55" value="&lt;div style=&quot;color: rgb(212, 212, 212); background-color: rgb(30, 30, 30); font-family: Consolas, &amp;quot;Courier New&amp;quot;, monospace; font-size: 14px; line-height: 19px;&quot;&gt;svgMaster.svg&lt;/div&gt;" style="whiteSpace=wrap;html=1;shape=mxgraph.basic.document;fillColor=#ffcccc;strokeColor=#36393d;" vertex="1" parent="1">
          <mxGeometry x="925" y="427.5" width="100" height="100" as="geometry" />
        </mxCell>
        <mxCell id="coq8QXR6QQkpp2Y44n48-121" style="edgeStyle=orthogonalEdgeStyle;rounded=0;orthogonalLoop=1;jettySize=auto;html=1;entryX=0.25;entryY=0;entryDx=0;entryDy=0;strokeColor=#0050ef;strokeWidth=4;" edge="1" parent="1" target="coq8QXR6QQkpp2Y44n48-122">
          <mxGeometry relative="1" as="geometry">
            <mxPoint x="930" y="790" as="sourcePoint" />
            <mxPoint x="926.4000000000001" y="846.0999999999999" as="targetPoint" />
            <Array as="points">
              <mxPoint x="930" y="860" />
              <mxPoint x="1008" y="860" />
            </Array>
          </mxGeometry>
        </mxCell>
        <mxCell id="coq8QXR6QQkpp2Y44n48-64" value="&lt;div style=&quot;color: rgb(212, 212, 212); background-color: rgb(30, 30, 30); font-family: Consolas, &amp;quot;Courier New&amp;quot;, monospace; font-size: 14px; line-height: 19px;&quot;&gt;&lt;div style=&quot;line-height: 19px;&quot;&gt;arrayOfArmyAndResourceProportions&lt;/div&gt;&lt;/div&gt;" style="verticalLabelPosition=bottom;verticalAlign=top;html=1;shape=mxgraph.basic.rect;fillColor2=none;strokeWidth=1;size=20;indent=5;fillColor=#A6D2FF;strokeColor=#36393d;" vertex="1" parent="1">
          <mxGeometry x="780" y="730" width="610" height="60" as="geometry" />
        </mxCell>
        <mxCell id="coq8QXR6QQkpp2Y44n48-35" value="&lt;div style=&quot;color: rgb(212, 212, 212); background-color: rgb(30, 30, 30); font-family: Consolas, &amp;quot;Courier New&amp;quot;, monospace; font-size: 14px; line-height: 19px;&quot;&gt;dataTableCountriesInitialState&lt;/div&gt;" style="verticalLabelPosition=bottom;verticalAlign=top;html=1;shape=mxgraph.basic.rect;fillColor2=none;strokeWidth=1;size=20;indent=5;fillColor=#0050ef;strokeColor=#001DBC;fontColor=#ffffff;" vertex="1" parent="1">
          <mxGeometry x="232" y="540" width="595" height="60" as="geometry" />
        </mxCell>
        <mxCell id="coq8QXR6QQkpp2Y44n48-36" value="country" style="rounded=1;whiteSpace=wrap;html=1;fillColor=#60a917;fontColor=#ffffff;strokeColor=#2D7600;" vertex="1" parent="1">
          <mxGeometry x="252" y="550" width="40" height="40" as="geometry" />
        </mxCell>
        <mxCell id="coq8QXR6QQkpp2Y44n48-37" value="startingPop" style="rounded=1;whiteSpace=wrap;html=1;fillColor=#1ba1e2;fontColor=#ffffff;strokeColor=#006EAF;" vertex="1" parent="1">
          <mxGeometry x="302" y="550" width="40" height="40" as="geometry" />
        </mxCell>
        <mxCell id="coq8QXR6QQkpp2Y44n48-38" value="area" style="rounded=1;whiteSpace=wrap;html=1;fillColor=#d80073;fontColor=#ffffff;strokeColor=#A50040;" vertex="1" parent="1">
          <mxGeometry x="352" y="550" width="40" height="40" as="geometry" />
        </mxCell>
        <mxCell id="coq8QXR6QQkpp2Y44n48-39" value="startingArmy" style="rounded=1;whiteSpace=wrap;html=1;fillColor=#a20025;fontColor=#ffffff;strokeColor=#6F0000;" vertex="1" parent="1">
          <mxGeometry x="402" y="550" width="40" height="40" as="geometry" />
        </mxCell>
        <mxCell id="coq8QXR6QQkpp2Y44n48-40" value="continent" style="rounded=1;whiteSpace=wrap;html=1;fillColor=#e3c800;fontColor=#000000;strokeColor=#B09500;" vertex="1" parent="1">
          <mxGeometry x="452" y="550" width="40" height="40" as="geometry" />
        </mxCell>
        <mxCell id="coq8QXR6QQkpp2Y44n48-41" value="res_gold" style="rounded=1;whiteSpace=wrap;html=1;fillColor=#fff2cc;strokeColor=#d6b656;gradientColor=#ffd966;" vertex="1" parent="1">
          <mxGeometry x="512" y="550" width="40" height="40" as="geometry" />
        </mxCell>
        <mxCell id="coq8QXR6QQkpp2Y44n48-42" value="res_cons_mats" style="rounded=1;whiteSpace=wrap;html=1;fillColor=#ffcc99;strokeColor=#36393d;" vertex="1" parent="1">
          <mxGeometry x="672" y="550" width="40" height="40" as="geometry" />
        </mxCell>
        <mxCell id="coq8QXR6QQkpp2Y44n48-43" value="res_food" style="rounded=1;whiteSpace=wrap;html=1;fillColor=#e6d0de;gradientColor=#d5739d;strokeColor=#996185;" vertex="1" parent="1">
          <mxGeometry x="619" y="550" width="40" height="40" as="geometry" />
        </mxCell>
        <mxCell id="coq8QXR6QQkpp2Y44n48-44" value="res_oil" style="rounded=1;whiteSpace=wrap;html=1;fillColor=#f5f5f5;gradientColor=#b3b3b3;strokeColor=#666666;" vertex="1" parent="1">
          <mxGeometry x="567" y="550" width="40" height="40" as="geometry" />
        </mxCell>
        <mxCell id="coq8QXR6QQkpp2Y44n48-45" value="dev_index" style="rounded=1;whiteSpace=wrap;html=1;fillColor=#cce5ff;strokeColor=#36393d;" vertex="1" parent="1">
          <mxGeometry x="721.75" y="550" width="40.5" height="40" as="geometry" />
        </mxCell>
        <mxCell id="coq8QXR6QQkpp2Y44n48-46" value="country_modifier" style="rounded=1;whiteSpace=wrap;html=1;fillColor=#cdeb8b;strokeColor=#36393d;" vertex="1" parent="1">
          <mxGeometry x="772" y="550" width="40" height="40" as="geometry" />
        </mxCell>
        <mxCell id="coq8QXR6QQkpp2Y44n48-47" style="edgeStyle=orthogonalEdgeStyle;rounded=0;orthogonalLoop=1;jettySize=auto;html=1;exitX=1;exitY=0.5;exitDx=0;exitDy=0;entryX=1;entryY=0.25;entryDx=0;entryDy=0;" edge="1" parent="1" source="coq8QXR6QQkpp2Y44n48-38" target="coq8QXR6QQkpp2Y44n48-38">
          <mxGeometry relative="1" as="geometry" />
        </mxCell>
        <mxCell id="coq8QXR6QQkpp2Y44n48-84" value="Country Scope" style="text;html=1;strokeColor=none;fillColor=none;align=center;verticalAlign=middle;whiteSpace=wrap;rounded=0;fontSize=19;" vertex="1" parent="1">
          <mxGeometry x="432" y="620" width="200" height="30" as="geometry" />
        </mxCell>
        <mxCell id="coq8QXR6QQkpp2Y44n48-87" style="edgeStyle=orthogonalEdgeStyle;rounded=0;orthogonalLoop=1;jettySize=auto;html=1;exitX=1.003;exitY=0.268;exitDx=0;exitDy=0;entryX=0;entryY=0.25;entryDx=0;entryDy=0;strokeColor=#a6d2ff;strokeWidth=2;exitPerimeter=0;" edge="1" parent="1" source="coq8QXR6QQkpp2Y44n48-64" target="coq8QXR6QQkpp2Y44n48-86">
          <mxGeometry relative="1" as="geometry" />
        </mxCell>
        <mxCell id="coq8QXR6QQkpp2Y44n48-88" style="edgeStyle=orthogonalEdgeStyle;rounded=0;orthogonalLoop=1;jettySize=auto;html=1;entryX=1.006;entryY=0.729;entryDx=0;entryDy=0;entryPerimeter=0;strokeColor=#a6d2ff;strokeWidth=2;" edge="1" parent="1" source="coq8QXR6QQkpp2Y44n48-86" target="coq8QXR6QQkpp2Y44n48-64">
          <mxGeometry relative="1" as="geometry">
            <Array as="points">
              <mxPoint x="1470" y="810" />
              <mxPoint x="1470" y="775" />
              <mxPoint x="1394" y="775" />
            </Array>
          </mxGeometry>
        </mxCell>
        <mxCell id="coq8QXR6QQkpp2Y44n48-86" value="&lt;div style=&quot;color: rgb(212, 212, 212); background-color: rgb(30, 30, 30); font-family: Consolas, &amp;quot;Courier New&amp;quot;, monospace; font-size: 14px; line-height: 19px;&quot;&gt;&lt;div style=&quot;line-height: 19px;&quot;&gt;randomiseArmyAndResources&lt;/div&gt;&lt;/div&gt;" style="shape=delay;whiteSpace=wrap;html=1;" vertex="1" parent="1">
          <mxGeometry x="1580" y="760" width="310" height="100" as="geometry" />
        </mxCell>
        <mxCell id="coq8QXR6QQkpp2Y44n48-92" value="" style="group" vertex="1" connectable="0" parent="1">
          <mxGeometry x="870" y="790" width="590" height="100" as="geometry" />
        </mxCell>
        <mxCell id="coq8QXR6QQkpp2Y44n48-85" value="Territory Scope" style="text;html=1;strokeColor=none;fillColor=none;align=center;verticalAlign=middle;whiteSpace=wrap;rounded=0;fontSize=19;" vertex="1" parent="coq8QXR6QQkpp2Y44n48-92">
          <mxGeometry x="115" y="30" width="200" height="30" as="geometry" />
        </mxCell>
        <mxCell id="coq8QXR6QQkpp2Y44n48-110" value="" style="line;strokeWidth=5;fillColor=none;align=left;verticalAlign=middle;spacingTop=-1;spacingLeft=3;spacingRight=3;rotatable=0;labelPosition=right;points=[];portConstraint=eastwest;strokeColor=default;dashed=1;" vertex="1" parent="1">
          <mxGeometry x="-170" y="1430" width="2120" height="8" as="geometry" />
        </mxCell>
        <mxCell id="coq8QXR6QQkpp2Y44n48-111" value="&lt;br&gt;" style="rounded=0;whiteSpace=wrap;html=1;fillColor=#d5e8d4;gradientColor=#97d077;strokeColor=#82b366;fontSize=26;" vertex="1" parent="1">
          <mxGeometry x="-170" y="1460" width="2130" height="510" as="geometry" />
        </mxCell>
        <mxCell id="coq8QXR6QQkpp2Y44n48-112" value="&lt;font style=&quot;font-size: 33px;&quot;&gt;FRONT END&lt;/font&gt;" style="text;html=1;strokeColor=none;fillColor=none;align=center;verticalAlign=middle;whiteSpace=wrap;rounded=0;fontStyle=1" vertex="1" parent="1">
          <mxGeometry x="720" y="1920" width="240" height="30" as="geometry" />
        </mxCell>
        <mxCell id="coq8QXR6QQkpp2Y44n48-118" style="edgeStyle=orthogonalEdgeStyle;rounded=0;orthogonalLoop=1;jettySize=auto;html=1;entryX=0.98;entryY=0.228;entryDx=0;entryDy=0;exitX=0;exitY=0;exitDx=0;exitDy=0;strokeColor=#ffcccc;strokeWidth=2;entryPerimeter=0;" edge="1" parent="1" source="coq8QXR6QQkpp2Y44n48-113" target="coq8QXR6QQkpp2Y44n48-51">
          <mxGeometry relative="1" as="geometry">
            <Array as="points">
              <mxPoint x="1290" y="620" />
              <mxPoint x="1290" y="643" />
            </Array>
          </mxGeometry>
        </mxCell>
        <mxCell id="coq8QXR6QQkpp2Y44n48-119" style="edgeStyle=orthogonalEdgeStyle;rounded=0;orthogonalLoop=1;jettySize=auto;html=1;exitX=0;exitY=0.25;exitDx=0;exitDy=0;strokeColor=#0050ef;strokeWidth=2;entryX=1.001;entryY=0.399;entryDx=0;entryDy=0;entryPerimeter=0;" edge="1" parent="1" source="coq8QXR6QQkpp2Y44n48-113" target="coq8QXR6QQkpp2Y44n48-51">
          <mxGeometry relative="1" as="geometry">
            <mxPoint x="1360" y="660" as="targetPoint" />
          </mxGeometry>
        </mxCell>
        <mxCell id="coq8QXR6QQkpp2Y44n48-113" value="&lt;div style=&quot;color: rgb(212, 212, 212); background-color: rgb(30, 30, 30); font-family: Consolas, &amp;quot;Courier New&amp;quot;, monospace; font-size: 14px; line-height: 19px;&quot;&gt;&lt;div style=&quot;line-height: 19px;&quot;&gt;assignArmyAndResourcesToPaths&lt;/div&gt;&lt;/div&gt;" style="shape=delay;whiteSpace=wrap;html=1;" vertex="1" parent="1">
          <mxGeometry x="1450" y="620" width="310" height="100" as="geometry" />
        </mxCell>
        <mxCell id="coq8QXR6QQkpp2Y44n48-67" value="area" style="rounded=1;whiteSpace=wrap;html=1;fillColor=#d80073;fontColor=#ffffff;strokeColor=#A50040;" vertex="1" parent="1">
          <mxGeometry x="940" y="740" width="40" height="40" as="geometry" />
        </mxCell>
        <mxCell id="coq8QXR6QQkpp2Y44n48-68" value="startingArmy" style="rounded=1;whiteSpace=wrap;html=1;fillColor=#a20025;fontColor=#ffffff;strokeColor=#6F0000;" vertex="1" parent="1">
          <mxGeometry x="1040" y="740" width="40" height="40" as="geometry" />
        </mxCell>
        <mxCell id="coq8QXR6QQkpp2Y44n48-69" value="continent" style="rounded=1;whiteSpace=wrap;html=1;fillColor=#e3c800;fontColor=#000000;strokeColor=#B09500;" vertex="1" parent="1">
          <mxGeometry x="990" y="740" width="40" height="40" as="geometry" />
        </mxCell>
        <mxCell id="coq8QXR6QQkpp2Y44n48-70" value="res_gold" style="rounded=1;whiteSpace=wrap;html=1;fillColor=#fff2cc;strokeColor=#d6b656;gradientColor=#ffd966;" vertex="1" parent="1">
          <mxGeometry x="1090.5" y="740" width="40" height="40" as="geometry" />
        </mxCell>
        <mxCell id="coq8QXR6QQkpp2Y44n48-71" value="res_cons_mats" style="rounded=1;whiteSpace=wrap;html=1;fillColor=#ffcc99;strokeColor=#36393d;" vertex="1" parent="1">
          <mxGeometry x="1240.5" y="740" width="40" height="40" as="geometry" />
        </mxCell>
        <mxCell id="coq8QXR6QQkpp2Y44n48-72" value="res_food" style="rounded=1;whiteSpace=wrap;html=1;fillColor=#e6d0de;gradientColor=#d5739d;strokeColor=#996185;" vertex="1" parent="1">
          <mxGeometry x="1190.5" y="740" width="40" height="40" as="geometry" />
        </mxCell>
        <mxCell id="coq8QXR6QQkpp2Y44n48-73" value="res_oil" style="rounded=1;whiteSpace=wrap;html=1;fillColor=#f5f5f5;gradientColor=#b3b3b3;strokeColor=#666666;" vertex="1" parent="1">
          <mxGeometry x="1140.5" y="740" width="40" height="40" as="geometry" />
        </mxCell>
        <mxCell id="coq8QXR6QQkpp2Y44n48-74" value="dev_index" style="rounded=1;whiteSpace=wrap;html=1;fillColor=#cce5ff;strokeColor=#36393d;" vertex="1" parent="1">
          <mxGeometry x="1290" y="740" width="40.5" height="40" as="geometry" />
        </mxCell>
        <mxCell id="coq8QXR6QQkpp2Y44n48-75" value="country_modifier" style="rounded=1;whiteSpace=wrap;html=1;fillColor=#cdeb8b;strokeColor=#36393d;" vertex="1" parent="1">
          <mxGeometry x="1340" y="740" width="40" height="40" as="geometry" />
        </mxCell>
        <mxCell id="coq8QXR6QQkpp2Y44n48-76" style="edgeStyle=orthogonalEdgeStyle;rounded=0;orthogonalLoop=1;jettySize=auto;html=1;exitX=1;exitY=0.5;exitDx=0;exitDy=0;entryX=1;entryY=0.25;entryDx=0;entryDy=0;" edge="1" parent="1" source="coq8QXR6QQkpp2Y44n48-67" target="coq8QXR6QQkpp2Y44n48-67">
          <mxGeometry relative="1" as="geometry" />
        </mxCell>
        <mxCell id="coq8QXR6QQkpp2Y44n48-79" value="uniqueid" style="rounded=1;whiteSpace=wrap;html=1;" vertex="1" parent="1">
          <mxGeometry x="790" y="740" width="40" height="40" as="geometry" />
        </mxCell>
        <mxCell id="coq8QXR6QQkpp2Y44n48-80" value="data-name" style="rounded=1;whiteSpace=wrap;html=1;fillColor=#60a917;fontColor=#ffffff;strokeColor=#2D7600;" vertex="1" parent="1">
          <mxGeometry x="840" y="740" width="40" height="40" as="geometry" />
        </mxCell>
        <mxCell id="coq8QXR6QQkpp2Y44n48-81" value="territory-id" style="rounded=1;whiteSpace=wrap;html=1;fillColor=#ffff88;strokeColor=#36393d;" vertex="1" parent="1">
          <mxGeometry x="890" y="740" width="40" height="40" as="geometry" />
        </mxCell>
        <mxCell id="coq8QXR6QQkpp2Y44n48-122" value="&lt;div style=&quot;color: rgb(212, 212, 212); background-color: rgb(30, 30, 30); font-family: Consolas, &amp;quot;Courier New&amp;quot;, monospace; font-size: 14px; line-height: 19px;&quot;&gt;newTurnResources&lt;/div&gt;" style="shape=delay;whiteSpace=wrap;html=1;" vertex="1" parent="1">
          <mxGeometry x="930" y="920" width="310" height="100" as="geometry" />
        </mxCell>
        <mxCell id="coq8QXR6QQkpp2Y44n48-1" value="id" style="rounded=1;whiteSpace=wrap;html=1;" vertex="1" parent="1">
          <mxGeometry x="10" y="10" width="63.851351351351354" height="60" as="geometry" />
        </mxCell>
        <mxCell id="coq8QXR6QQkpp2Y44n48-2" value="country" style="rounded=1;whiteSpace=wrap;html=1;fillColor=#60a917;fontColor=#ffffff;strokeColor=#2D7600;" vertex="1" parent="1">
          <mxGeometry x="86.62162162162163" y="10" width="153.24324324324326" height="60" as="geometry" />
        </mxCell>
        <mxCell id="coq8QXR6QQkpp2Y44n48-3" value="startingPop" style="rounded=1;whiteSpace=wrap;html=1;fillColor=#1ba1e2;fontColor=#ffffff;strokeColor=#006EAF;" vertex="1" parent="1">
          <mxGeometry x="252.63513513513513" y="10" width="153.24324324324326" height="60" as="geometry" />
        </mxCell>
        <mxCell id="coq8QXR6QQkpp2Y44n48-4" value="area" style="rounded=1;whiteSpace=wrap;html=1;fillColor=#d80073;fontColor=#ffffff;strokeColor=#A50040;" vertex="1" parent="1">
          <mxGeometry x="418.64864864864865" y="10" width="153.24324324324326" height="60" as="geometry" />
        </mxCell>
        <mxCell id="coq8QXR6QQkpp2Y44n48-5" value="startingArmy" style="rounded=1;whiteSpace=wrap;html=1;fillColor=#a20025;fontColor=#ffffff;strokeColor=#6F0000;" vertex="1" parent="1">
          <mxGeometry x="584.6621621621622" y="10" width="153.24324324324326" height="60" as="geometry" />
        </mxCell>
        <mxCell id="coq8QXR6QQkpp2Y44n48-12" value="continent" style="rounded=1;whiteSpace=wrap;html=1;fillColor=#e3c800;fontColor=#000000;strokeColor=#B09500;" vertex="1" parent="1">
          <mxGeometry x="750.6756756756756" y="10" width="153.24324324324326" height="60" as="geometry" />
        </mxCell>
        <mxCell id="coq8QXR6QQkpp2Y44n48-13" value="res_gold" style="rounded=1;whiteSpace=wrap;html=1;fillColor=#fff2cc;strokeColor=#d6b656;gradientColor=#ffd966;" vertex="1" parent="1">
          <mxGeometry x="916.6891891891892" y="10" width="153.24324324324326" height="60" as="geometry" />
        </mxCell>
        <mxCell id="coq8QXR6QQkpp2Y44n48-14" value="res_cons_mats" style="rounded=1;whiteSpace=wrap;html=1;fillColor=#ffcc99;strokeColor=#36393d;" vertex="1" parent="1">
          <mxGeometry x="1414.7297297297298" y="10" width="153.24324324324326" height="60" as="geometry" />
        </mxCell>
        <mxCell id="coq8QXR6QQkpp2Y44n48-15" value="res_food" style="rounded=1;whiteSpace=wrap;html=1;fillColor=#e6d0de;gradientColor=#d5739d;strokeColor=#996185;" vertex="1" parent="1">
          <mxGeometry x="1248.7162162162163" y="10" width="153.24324324324326" height="60" as="geometry" />
        </mxCell>
        <mxCell id="coq8QXR6QQkpp2Y44n48-16" value="res_oil" style="rounded=1;whiteSpace=wrap;html=1;fillColor=#f5f5f5;gradientColor=#b3b3b3;strokeColor=#666666;" vertex="1" parent="1">
          <mxGeometry x="1082.7027027027027" y="10" width="153.24324324324326" height="60" as="geometry" />
        </mxCell>
        <mxCell id="coq8QXR6QQkpp2Y44n48-17" value="dev_index" style="rounded=1;whiteSpace=wrap;html=1;fillColor=#cce5ff;strokeColor=#36393d;" vertex="1" parent="1">
          <mxGeometry x="1581.3817567567567" y="10" width="153.24324324324326" height="60" as="geometry" />
        </mxCell>
        <mxCell id="coq8QXR6QQkpp2Y44n48-18" value="country_modifier" style="rounded=1;whiteSpace=wrap;html=1;fillColor=#cdeb8b;strokeColor=#36393d;" vertex="1" parent="1">
          <mxGeometry x="1746.7567567567567" y="10" width="153.24324324324326" height="60" as="geometry" />
        </mxCell>
      </root>
    </mxGraphModel>
  </diagram>
</mxfile>
